# xmcd
#
# Track frame offsets: 
#        150
#        20635
#        39690
#        60625
#        78157
#        97355
#        116415
#        136275
#        155840
#        173740
#        189922
#        210537
#        229957
#        249602
#
# Disc length: 3581 seconds
#
# Revision: 2
# Processed by: cddbd v1.5.2PL0 Copyright (c) Steve Scherf et al.
# Submitted via: ExactAudioCopyFreeDBPlugin 1.0
#
DISCID=c10dfb0e
DTITLE=Johnnie Taylor - The Best of Johnnie Taylor on Malaco, Vol. 1
DYEAR=1992
DGENRE=Soul
TTITLE0=Still Crazy for You
TTITLE1=Drown in My Own Tears
TTITLE2=I Found a Love
TTITLE3=Everything's Out in the Open
TTITLE4=Don't Make Me Late
TTITLE5=Nothing as Beautiful as You
TTITLE6=This is Your Night
TTITLE7=Cheaper to Keep Her
TTITLE8=Wall to Wall
TTITLE9=Still Called the Blues
TTITLE10=Something is Going Wrong
TTITLE11=Just Because
TTITLE12=When She Stops Askin'
TTITLE13=Nothing Like a Lady
EXTD=
EXTT0=
EXTT1=
EXTT2=
EXTT3=
EXTT4=
EXTT5=
EXTT6=
EXTT7=
EXTT8=
EXTT9=
EXTT10=
EXTT11=
EXTT12=
EXTT13=
PLAYORDER=
